#!OML:ASF H:\Dans Jumps\Project 1\Capture day 1\Session 1\subject.ASF
:FULLY-SPECIFIED
:DEGREES
654
root -0.153919 17.691 10.4989 6.55454 -1.35105 -1.38866
lowerback -1.59787 0.240334 0.370401
upperback 1.07241 0.289944 1.15177
thorax 1.99046 0.141532 0.98253
lowerneck -14.7805 -0.0759714 -2.20492
upperneck 11.0636 0.0883138 1.89853
head 5.76054 0.0960684 0.967012
rclavicle -5.41688e-015 -1.13307e-014
rhumerus -22.7063 -23.1547 -79.801
rradius 20.0872
rwrist 41.1685
rhand -20.6898 -27.2848
rfingers 7.12502
rthumb 5.67385 -57.1888
lclavicle -5.41688e-015 -1.13307e-014
lhumerus -25.12 3.78661 86.9321
lradius 16.3228
lwrist 1.19049
lhand -25.0358 -6.20845
lfingers 7.12502
lthumb 1.47701 23.7662
rfemur -12.5424 -1.76812 20.7207
rtibia 20.9175
rfoot -13.8412 -2.71617
rtoes 6.03715
lfemur -13.1196 8.21651 -17.9505
ltibia 18.5745
lfoot -10.039 4.13746
ltoes -8.94805
655
root -0.152962 17.691 10.4974 6.55236 -1.33904 -1.38712
lowerback -1.61641 0.245988 0.369202
upperback 1.07308 0.297249 1.1549
thorax 2.00144 0.145127 0.986769
lowerneck -14.7925 -0.0809249 -2.22333
upperneck 11.0532 0.0805345 1.93571
head 5.75939 0.0944679 0.981065
rclavicle 2.06239e-015 -5.1684e-015
rhumerus -22.6836 -23.185 -79.7971
rradius 20.0756
rwrist 41.1952
rhand -20.691 -27.2934
rfingers 7.12502
rthumb 5.67269 -57.1975
lclavicle 2.06239e-015 -5.1684e-015
lhumerus -25.1291 3.79293 86.9023
lradius 16.3221
lwrist 1.15297
lhand -24.9864 -6.13229
lfingers 7.12502
lthumb 1.52472 23.842
rfemur -12.5432 -1.76859 20.716
rtibia 20.9168
rfoot -13.8355 -2.72901
rtoes 6.03202
lfemur -13.1217 8.22025 -17.9566
ltibia 18.5663
lfoot -10.0343 4.12199
ltoes -8.95597
656
root -0.152018 17.6911 10.4961 6.55051 -1.32939 -1.38671
lowerback -1.63328 0.253221 0.369827
upperback 1.07164 0.306677 1.15697
thorax 2.0093 0.149823 0.988946
lowerneck -14.7892 -0.0898493 -2.23963
upperneck 11.0356 0.0674635 1.96768
head 5.75353 0.0899258 0.99257
rclavicle 2.48481e-015 -5.36719e-015
rhumerus -22.6649 -23.2159 -79.7942
rradius 20.0618
rwrist 41.2244
rhand -20.6907 -27.3049
rfingers 7.12502
rthumb 5.67298 -57.209
lclavicle 2.48481e-015 -5.36719e-015
lhumerus -25.1384 3.77769 86.8753
lradius 16.3289
lwrist 1.14118
lhand -24.9422 -6.03752
lfingers 7.12502
lthumb 1.56737 23.9365
rfemur -12.5431 -1.76755 20.7125
rtibia 20.9137
rfoot -13.8295 -2.73962
rtoes 6.03875
lfemur -13.1236 8.22443 -17.961
ltibia 18.5592
lfoot -10.0308 4.10773
ltoes -8.95481
657
root -0.150994 17.6911 10.495 6.54825 -1.31957 -1.38615
lowerback -1.6521 0.260993 0.372241
upperback 1.07021 0.316783 1.15766
thorax 2.01828 0.154889 0.988746
lowerneck -14.7849 -0.0980662 -2.24492
upperneck 11.0193 0.0547817 1.98725
head 5.74794 0.0850694 0.998395
rclavicle 2.73329e-015 -1.19271e-014
rhumerus -22.6479 -23.2538 -79.7912
rradius 20.0444
rwrist 41.2605
rhand -20.6877 -27.3107
rfingers 7.12502
rthumb 5.67585 -57.2147
lclavicle 2.73329e-015 -1.19271e-014
lhumerus -25.1489 3.75969 86.8468
lradius 16.3375
lwrist 1.13182
lhand -24.8951 -5.92592
lfingers 7.12502
lthumb 1.61284 24.0477
rfemur -12.5405 -1.7706 20.7086
rtibia 20.9085
rfoot -13.824 -2.74695
rtoes 6.03839
lfemur -13.124 8.22917 -17.9655
ltibia 18.5525
lfoot -10.03 4.09298
ltoes -8.9533
658
root -0.149947 17.6913 10.4941 6.54413 -1.31085 -1.38505
lowerback -1.66632 0.269365 0.374177
upperback 1.06595 0.327803 1.15741
thorax 2.02175 0.160423 0.987839
lowerneck -14.7786 -0.104639 -2.23923
upperneck 11.0062 0.0435981 1.99522
head 5.743 0.0804925 0.998906
rclavicle 6.33626e-015 -1.59028e-015
rhumerus -22.6391 -23.2893 -79.7884
rradius 20.0273
rwrist 41.2956
rhand -20.6794 -27.3114
rfingers 7.12502
rthumb 5.68392 -57.2152
lclavicle 6.33626e-015 -1.59028e-015
lhumerus -25.1679 3.73752 86.8167
lradius 16.3459
lwrist 1.12143
lhand -24.8735 -5.84893
lfingers 7.12502
lthumb 1.63372 24.1246
rfemur -12.5344 -1.77447 20.7041
rtibia 20.9015
rfoot -13.8198 -2.75223
rtoes 6.0377
lfemur -13.1209 8.23489 -17.9699
ltibia 18.5453
lfoot -10.0318 4.07708
ltoes -8.93534
659
root -0.149013 17.6913 10.4937 6.5345 -1.30375 -1.38613
lowerback -1.67008 0.276041 0.377276
upperback 1.05915 0.336657 1.1582
thorax 2.01677 0.164897 0.987198
lowerneck -14.7664 -0.120595 -2.26636
upperneck 11.0053 0.0230984 2.02632
head 5.74114 0.071728 1.01126
rclavicle -4.37326e-015 3.97569e-015
rhumerus -22.6396 -23.3122 -79.7892
rradius 20.0124
rwrist 41.3115
rhand -20.6869 -27.2887
rfingers 7.12502
rthumb 5.67664 -57.1927
lclavicle -4.37326e-015 3.97569e-015
lhumerus -25.1996 3.73665 86.7758
lradius 16.3462
lwrist 1.10045
lhand -24.8884 -5.9608
lfingers 7.12502
lthumb 1.61937 24.0128
rfemur -12.5194 -1.78118 20.7021
rtibia 20.8922
rfoot -13.8175 -2.7515
rtoes 6.04706
lfemur -13.1092 8.24599 -17.9704
ltibia 18.5374
lfoot -10.037 4.05896
ltoes -8.92262
660
root -0.148062 17.6914 10.4933 6.52498 -1.2979 -1.38678
lowerback -1.67047 0.283532 0.378239
upperback 1.04983 0.346717 1.15915
thorax 2.00727 0.169951 0.987932
lowerneck -14.7564 -0.131889 -2.28146
upperneck 11.0059 0.00797268 2.04629
head 5.74 0.0652341 1.01865
rclavicle -4.84538e-015 -9.54166e-015
rhumerus -22.6449 -23.3283 -79.7909
rradius 19.9995
rwrist 41.3189
rhand -20.6858 -27.2655
rfingers 7.12502
rthumb 5.67772 -57.1695
lclavicle -4.84538e-015 -9.54166e-015
lhumerus -25.2366 3.74018 86.7334
lradius 16.3424
lwrist 1.08084
lhand -24.9315 -6.1191
lfingers 7.12502
lthumb 1.57776 23.8548
rfemur -12.5037 -1.78781 20.6996
rtibia 20.8803
rfoot -13.8133 -2.74898
rtoes 6.04872
lfemur -13.0973 8.25854 -17.9718
ltibia 18.5291
lfoot -10.0413 4.04066
ltoes -8.92095
661
root -0.147147 17.6916 10.4931 6.51472 -1.29329 -1.38925
lowerback -1.67263 0.292573 0.380088
upperback 1.04285 0.358766 1.16048
thorax 2.00115 0.176001 0.988643
lowerneck -14.7567 -0.140665 -2.28883
upperneck 11.0109 -0.00440364 2.06063
head 5.74192 0.0600104 1.02328
rclavicle 8.59744e-015 -6.55989e-015
rhumerus -22.6495 -23.3434 -79.7954
rradius 19.991
rwrist 41.3183
rhand -20.682 -27.2429
rfingers 7.12502
rthumb 5.6814 -57.1467
lclavicle 8.59744e-015 -6.55989e-015
lhumerus -25.2706 3.75064 86.6901
lradius 16.3349
lwrist 1.06261
lhand -24.9674 -6.25241
lfingers 7.12502
lthumb 1.54308 23.7218
rfemur -12.4857 -1.79312 20.6988
rtibia 20.8666
rfoot -13.8079 -2.74622
rtoes 6.0514
lfemur -13.0832 8.27397 -17.9709
ltibia 18.5195
lfoot -10.0457 4.02041
ltoes -8.92696
662
root -0.14617 17.6918 10.4928 6.50606 -1.28684 -1.39332
lowerback -1.67519 0.302025 0.383346
upperback 1.03594 0.371313 1.16238
thorax 1.99534 0.182314 0.989169
lowerneck -14.7508 -0.147874 -2.29945
upperneck 11.0137 -0.0148481 2.08025
head 5.74202 0.0559724 1.03027
rclavicle -5.09386e-015 -1.39149e-014
rhumerus -22.654 -23.3488 -79.8037
rradius 19.9889
rwrist 41.3061
rhand -20.6695 -27.2301
rfingers 7.12502
rthumb 5.69348 -57.1336
lclavicle -5.09386e-015 -1.39149e-014
lhumerus -25.3022 3.76806 86.6471
lradius 16.3308
lwrist 1.05922
lhand -25.0091 -6.33948
lfingers 7.12502
lthumb 1.50276 23.635
rfemur -12.4687 -1.7997 20.6995
rtibia 20.8506
rfoot -13.8014 -2.74172
rtoes 6.06425
lfemur -13.0714 8.28801 -17.9687
ltibia 18.5093
lfoot -10.0486 3.99851
ltoes -8.93246
663
root -0.145049 17.6922 10.4922 6.50096 -1.27659 -1.39387
lowerback -1.6929 0.312675 0.385766
upperback 1.03641 0.385257 1.16231
thorax 2.00558 0.189298 0.988342
lowerneck -14.7575 -0.151471 -2.29601
upperneck 11.0177 -0.0220275 2.09227
head 5.74459 0.0535934 1.03291
rclavicle 7.00716e-015 1.80894e-014
rhumerus -22.6485 -23.3614 -79.8156
rradius 19.9911
rwrist 41.2994
rhand -20.6391 -27.2348
rfingers 7.12502
rthumb 5.72277 -57.1375
lclavicle 7.00716e-015 1.80894e-014
lhumerus -25.3185 3.79909 86.6033
lradius 16.3212
lwrist 1.03995
lhand -25.0322 -6.33385
lfingers 7.12502
lthumb 1.48051 23.6408
rfemur -12.4545 -1.81167 20.696
rtibia 20.8328
rfoot -13.794 -2.73616
rtoes 6.07104
lfemur -13.0642 8.29908 -17.9717
ltibia 18.4988
lfoot -10.0505 3.9744
ltoes -8.93777
664
root -0.143863 17.6926 10.4916 6.49814 -1.2641 -1.39725
lowerback -1.71365 0.324191 0.392178
upperback 1.037 0.400215 1.16231
thorax 2.01768 0.196841 0.985409
lowerneck -14.7544 -0.154598 -2.27824
upperneck 11.0127 -0.0296561 2.09011
head 5.74268 0.0504746 1.02862
rclavicle 4.47266e-016 -1.15295e-014
rhumerus -22.643 -23.3768 -79.8281
rradius 19.9951
rwrist 41.2959
rhand -20.6054 -27.253
rfingers 7.12502
rthumb 5.75537 -57.1548
lclavicle 4.47266e-016 -1.15295e-014
lhumerus -25.3321 3.83296 86.5607
lradius 16.3114
lwrist 1.01662
lhand -25.0741 -6.29229
lfingers 7.12502
lthumb 1.44003 23.6826
rfemur -12.4426 -1.82238 20.6956
rtibia 20.8139
rfoot -13.7856 -2.73418
rtoes 6.07179
lfemur -13.0605 8.30639 -17.972
ltibia 18.4888
lfoot -10.0503 3.95102
ltoes -8.93554
